/* XPM */
static char *result[] = {
/* columns rows colors chars-per-pixel */
"32 32 4 1 ",
"  c black",
". c #E31616",
"X c #E9EC07",
"o c #074AEC",
/* pixels */
"                                ",
"                   XXX          ",
"                   X X          ",
"                 XXXXXXX        ",
"                                ",
"                                ",
"XXX              XXXXXXX        ",
"  XX            XX     XX       ",
"   XX          XX       XX      ",
"........       X         X      ",
"    oo  .     XX         X      ",
"     o  .     X          X      ",
"     o   .    X          X      ",
"     o   .    X          X      ",
"     oo  .   XX          X      ",
"      ooo.XXXX           X      ",
"         .               X      ",
"         .               X      ",
"         .               X      ",
"        .                X      ",
"        .                X      ",
"........                 X      ",
"                         XX     ",
"            X             X     ",
"              X           XX    ",
"          X  X             XXXXX",
"            X  X                ",
"           X                    ",
"             X                  ",
"                                ",
"                                ",
"                                "
};
