/* XPM */
static char *result[] = {
/* columns rows colors chars-per-pixel */
"32 32 4 1 ",
"  c black",
". c #1AFF00",
"X c #E9EC07",
"o c #074AEC",
/* pixels */
"                                ",
"                                ",
"                                ",
"                                ",
"                                ",
"                                ",
"                                ",
"            XX  XX              ",
"           X  XX  X             ",
"           X  XX  X       oooooo",
"            XX  XX       oo     ",
"                         o      ",
"                         o      ",
"                        oo      ",
"      XXXXXXXXXXXXXXX   oo      ",
"     XX             XX   o      ",
"    XX               XX  o      ",
"    X       XXXXXX    X  oo     ",
"    X      XX    XX   X   oooooo",
"    X      X      X   X         ",
"   ....    X      X   X         ",
"  . X  .   X X  X X   X         ",
" .  X   .  XXXXXXXX   X         ",
" . XX   .   XXXXXX    X         ",
" .XX    .    XXXX     XX        ",
"X.X     .              XX       ",
"  .    .                XXXXXXXX",
"   ....                         ",
"                                ",
"                                ",
"                                ",
"                                "
};
