/* XPM */
static char *result[] = {
/* columns rows colors chars-per-pixel */
"32 32 5 1 ",
"  c black",
". c #E31616",
"X c #1AFF00",
"o c #FF8700",
"O c #E9EC07",
/* pixels */
"                                ",
"                                ",
"                          O     ",
"                         O      ",
"                                ",
"                                ",
"     OOOOOOOOOOOOOOOOOOOOOOOOOOO",
"    OO                          ",
"    O            OOO            ",
"   OO              OO           ",
"   O                O          .",
"   O                O          .",
"X  O                O         . ",
"XXXX                O         . ",
"  oXX              OO         . ",
" oo XX             O          . ",
"oo   X            OO          . ",
"     X            OO OO       . ",
"    XX            OO O        . ",
"   XX              OOO         .",
"XXXX               OO          .",
"X                               ",
"                                ",
"         O        OOO OO OO OO  ",
"          O      O              ",
"                O  OO           ",
"                O O  O          ",
"                 O   O          ",
"                  O O           ",
"                   OO           ",
"                                ",
"                                "
};
