/* XPM */
static char *result[] = {
/* columns rows colors chars-per-pixel */
"32 32 5 1 ",
"  c black",
". c #1AFF00",
"X c #FF8700",
"o c #E9EC07",
"O c #074AEC",
/* pixels */
"                                ",
"                                ",
"                     o          ",
"                     o          ",
"                   oo oo        ",
"                     o          ",
"                     o          ",
"                                ",
"                                ",
"OOOOOOO                         ",
"      OO                        ",
"       O                        ",
"       O                   .....",
"       OO               ....    ",
"       OO              ..       ",
"       O              ..        ",
"       O         ooooo.XXXXXXXXX",
"      OO        oo    .         ",
"OOOOOOO        oo     ..        ",
"               o       ..       ",
"               o        ....    ",
"      o o o    o           .....",
"      o o o    o                ",
"      o o o    o                ",
"      o o o   oo                ",
"            ooo                 ",
"ooooooooooooo                   ",
"                                ",
"      o o o                     ",
"      o o o                     ",
"      o o o                     ",
"                                "
};
